<?xml version="1.0"?>
<svg xmlns="http://www.w3.org/2000/svg" id="Layer_5" enable-background="new 0 0 64 64" height="512px" viewBox="0 0 64 64" width="512px" class=""><g><path d="m45 11c1.103 0 2 .897 2 2h2c0-1.859-1.28-3.411-3-3.858v-2.142h-2v2h-3v4c0 2.206 1.794 4 4 4 1.103 0 2 .897 2 2v2h-2c-1.103 0-2-.897-2-2h-2c0 1.859 1.28 3.411 3 3.858v2.142h2v-2h3v-4c0-2.206-1.794-4-4-4-1.103 0-2-.897-2-2v-2z" data-original="#000000" class="active-path" data-old_color="#000000" fill="#FFFFFF"/><path d="m63 28c0-14.888-12.112-27-27-27h-1v28h13v12c0 1.103-.897 2-2 2h-5.111c1.301-1.272 2.111-3.042 2.111-5 0-3.859-3.14-7-7-7h-7v-26h-1c-14.888 0-27 12.112-27 27 0 12.912 9.4 24.164 22 26.532v4.468h21v-9.913c0-.726.518-1.347 1.232-1.477l3.199-.582c3.806-.692 6.569-4.002 6.569-7.87v-14.158h8zm-26.03 25.616-.97.97-.97-.97.616-8.616h.709zm4.03-15.616c0 2.757-2.243 5-5 5s-5-2.243-5-5 2.243-5 5-5 5 2.243 5 5zm-31.321 10.907c-3.927-4.266-6.385-9.858-6.633-15.907h22.54zm17.321-41.887v23.98h-23.975c.514-12.991 10.984-23.467 23.975-23.98zm-15.912 43.306 17.326-17.326h2.696c-1.3 1.272-2.11 3.042-2.11 5 0 2.123.954 4.025 2.452 5.31-4.839 1.154-8.452 5.503-8.452 10.69v2.473c-4.554-.93-8.637-3.108-11.912-6.147zm41.912-7.168c0 2.901-2.072 5.384-4.927 5.903l-3.199.581c-1.666.303-2.874 1.752-2.874 3.445v7.913h-12v-11h-2v11h-3v-7c0-4.841 3.845-8.79 8.639-8.982l-.669 9.365 3.03 3.03 3.03-3.03-.67-9.383h7.64c2.206 0 4-1.794 4-4v-13.5c0-.827.673-1.5 1.5-1.5s1.5.673 1.5 1.5zm1.949-16.158c-.245-1.692-1.691-3-3.449-3s-3.204 1.308-3.449 3h-11.051v-23.98c12.992.513 23.467 10.989 23.98 23.98z" data-original="#000000" class="active-path" data-old_color="#000000" fill="#FFFFFF"/><path d="m17.536 46.465h2v2h-2z" transform="matrix(.707 -.707 .707 .707 -28.134 27.009)" data-original="#000000" class="active-path" data-old_color="#000000" fill="#FFFFFF"/><path d="m20.379 43.671h1.899v2h-1.899z" transform="matrix(.707 -.707 .707 .707 -25.341 28.165)" data-original="#000000" class="active-path" data-old_color="#000000" fill="#FFFFFF"/><path d="m14.707 49.293h2v2h-2z" transform="matrix(.707 -.707 .707 .707 -30.962 25.837)" data-original="#000000" class="active-path" data-old_color="#000000" fill="#FFFFFF"/><path d="m25 29v-10h-18v10zm-16-8h14v6h-14z" data-original="#000000" class="active-path" data-old_color="#000000" fill="#FFFFFF"/><path d="m11 23h2v2h-2z" data-original="#000000" class="active-path" data-old_color="#000000" fill="#FFFFFF"/><path d="m15 23h2v2h-2z" data-original="#000000" class="active-path" data-old_color="#000000" fill="#FFFFFF"/><path d="m19 23h2v2h-2z" data-original="#000000" class="active-path" data-old_color="#000000" fill="#FFFFFF"/><path d="m23 13h2v2h-2z" data-original="#000000" class="active-path" data-old_color="#000000" fill="#FFFFFF"/><path d="m23 9h2v2h-2z" data-original="#000000" class="active-path" data-old_color="#000000" fill="#FFFFFF"/><path d="m7.327 35.714-1.969.352c.122.684.277 1.37.461 2.039l1.929-.529c-.167-.612-.309-1.238-.421-1.862z" data-original="#000000" class="active-path" data-old_color="#000000" fill="#FFFFFF"/><path d="m8.336 39.389-1.871.707c.246.652.523 1.298.824 1.918l1.8-.871c-.275-.567-.528-1.157-.753-1.754z" data-original="#000000" class="active-path" data-old_color="#000000" fill="#FFFFFF"/><path d="m9.998 42.82-1.713 1.031c.355.591.745 1.176 1.158 1.739l1.613-1.182c-.377-.514-.733-1.049-1.058-1.588z" data-original="#000000" class="active-path" data-old_color="#000000" fill="#FFFFFF"/><path d="m54.43 17.924 1.754-.961c-.333-.606-.698-1.207-1.087-1.784l-1.659 1.115c.354.528.688 1.077.992 1.63z" data-original="#000000" class="active-path" data-old_color="#000000" fill="#FFFFFF"/><path d="m56.807 25.136 1.981-.271c-.094-.688-.221-1.38-.376-2.056l-1.949.449c.142.617.258 1.249.344 1.878z" data-original="#000000" class="active-path" data-old_color="#000000" fill="#FFFFFF"/><path d="m55.949 21.421 1.899-.625c-.217-.659-.467-1.316-.745-1.954l-1.834.797c.253.582.482 1.181.68 1.782z" data-original="#000000" class="active-path" data-old_color="#000000" fill="#FFFFFF"/></g> </svg>
