<?xml version="1.0"?>
<svg xmlns="http://www.w3.org/2000/svg" id="Capa_1" enable-background="new 0 0 512 512" height="512px" viewBox="0 0 512 512" width="512px"><g><g><path d="m403.398 174.238c-58.78 0-106.602 47.833-106.602 106.627 0 55.421 42.494 101.095 96.602 106.155v88.717c0 8.967-7.292 16.263-16.256 16.263h-200.235c-8.963 0-16.256-7.295-16.256-16.263v-16.291h9.819c22.821 0 41.388-18.57 41.388-41.396v-12.544c6.956-.862 13.408-3.994 18.478-9.051 6.058-6.043 9.394-14.067 9.394-22.592 0-8.452-3.326-16.146-8.732-21.859 5.634-5.954 8.732-13.681 8.732-21.875 0-8.864-3.649-16.898-9.52-22.688 6.647-17.841 17.115-32.12 28.144-47.133 20.158-27.441 41.003-55.816 40.948-107.75 0-5.261-.252-10.692-.75-16.141-.502-5.5-5.368-9.549-10.869-9.048-5.5.502-9.551 5.369-9.048 10.869.443 4.846.667 9.664.667 14.331.048 45.376-17.98 69.917-37.066 95.899-11.043 15.033-22.403 30.518-30.04 50.075-1.408-.194-2.843-.305-4.303-.309-.003 0-.006 0-.009 0l-47.233-.07v-105.945c5.927 1.206 11.793 1.828 17.527 1.828 13.26 0 25.826-3.216 36.871-9.595 19.382-11.194 32.658-31.307 37.384-56.633.904-4.844-1.855-9.624-6.501-11.264-24.277-8.57-48.32-7.129-67.701 4.057-11.532 6.656-20.882 16.488-27.58 28.677-6.696-12.186-16.044-22.015-27.572-28.671-19.385-11.191-43.44-12.635-67.734-4.064-4.65 1.64-7.41 6.424-6.502 11.271 4.743 25.333 18.028 45.445 37.409 56.634 11.042 6.375 23.603 9.587 36.863 9.587 5.736 0 11.606-.622 17.537-1.829v105.917l-47.218-.07c-1.495 0-2.965.112-4.406.312-7.638-19.485-18.963-34.925-29.974-49.915-19.08-25.976-37.101-50.51-37.053-95.894.045-48.38 20.825-78.986 38.249-96.143 23.992-23.624 56.87-36.903 90.256-36.411.097.001.192.001.288 0 .566-.008 1.125-.012 1.69-.012 35.209 0 70.186 15.608 93.851 41.96 3.689 4.109 10.013 4.449 14.122.758 4.109-3.69 4.449-10.012.758-14.122-27.817-30.974-69.138-49.106-110.563-48.584-38.622-.522-76.687 14.84-104.436 42.161-28.885 28.442-44.175 66.609-44.216 110.374-.055 51.95 20.782 80.319 40.934 107.754 11 14.976 21.442 29.22 28.095 47.006-5.835 5.784-9.456 13.802-9.456 22.652 0 8.463 3.322 16.16 8.72 21.872-5.399 5.717-8.72 13.42-8.72 21.89 0 16.214 12.172 29.628 27.844 31.606v12.723c0 22.826 18.579 41.396 41.416 41.396h9.819v16.291c0 19.995 16.264 36.263 36.256 36.263h200.235c19.992 0 36.256-16.268 36.256-36.263v-88.717c54.108-5.06 96.601-50.734 96.601-106.155 0-58.795-47.821-106.628-106.602-106.628zm-215.169-36.305c12.034-6.945 26.843-8.66 42.416-5.046-4.663 15.312-13.56 27.293-25.598 34.246-12.034 6.95-26.853 8.671-42.435 5.063 4.665-15.322 13.57-27.31 25.617-34.263zm-91.978 29.205c-12.038-6.95-20.942-18.933-25.615-34.25 15.586-3.614 30.407-1.898 42.443 5.051 12.044 6.953 20.946 18.939 25.611 34.257-15.59 3.606-30.41 1.888-42.439-5.058zm-8.711 152.51c.099-.053.193-.114.29-.171 1.667-.9 3.569-1.413 5.588-1.413l114.428.17c6.553.016 11.884 5.352 11.884 11.895 0 3.158-1.248 6.142-3.512 8.401-2.241 2.235-5.186 3.465-8.306 3.465-.006 0-.013 0-.02 0-.003 0-.006 0-.009 0l-114.451-.17c-6.54 0-11.861-5.323-11.861-11.867.001-4.407 2.411-8.255 5.969-10.31zm5.893 65.94c-6.54 0-11.861-5.323-11.861-11.867 0-6.559 5.321-11.895 11.846-11.895l114.428.17c6.553.016 11.884 5.339 11.884 11.867 0 3.174-1.25 6.169-3.52 8.434-2.238 2.233-5.23 3.292-8.348 3.292-.008-.001-114.429-.001-114.429-.001zm37.399 53.858c-11.809 0-21.416-9.598-21.416-21.396v-12.439l82.443.123v12.316c0 11.798-9.595 21.396-21.388 21.396zm272.566-71.953c-47.752 0-86.602-38.861-86.602-86.627s38.849-86.627 86.602-86.627 86.602 38.86 86.602 86.627-38.849 86.627-86.602 86.627z" data-original="#000000" class="active-path" data-old_color="#000000" fill="#FFFFFF"/><path d="m425.061 270.866h-27.177l19.74-39.658c2.461-4.944.448-10.947-4.496-13.408-4.943-2.46-10.946-.448-13.408 4.496l-26.936 54.114c-1.543 3.1-1.373 6.777.45 9.721 1.823 2.943 5.04 4.735 8.502 4.735h27.188l-19.726 39.691c-2.458 4.946-.441 10.948 4.504 13.406 1.43.71 2.948 1.047 4.443 1.047 3.677 0 7.215-2.036 8.963-5.552l26.908-54.142c1.541-3.1 1.369-6.776-.455-9.718s-5.039-4.732-8.5-4.732z" data-original="#000000" class="active-path" data-old_color="#000000" fill="#FFFFFF"/><path d="m278.046 103.879c5.523 0 10-4.505 10-10.028s-4.477-10-10-10-10 4.477-10 10v.057c0 5.522 4.477 9.971 10 9.971z" data-original="#000000" class="active-path" data-old_color="#000000" fill="#FFFFFF"/></g></g> </svg>
