<?xml version="1.0"?>
<svg xmlns="http://www.w3.org/2000/svg" id="Capa_1" enable-background="new 0 0 551.13 551.13" height="25px" viewBox="0 0 551.13 551.13" width="25px" class=""><g><path d="m137.783 413.348h275.565c76.096 0 137.783-61.686 137.783-137.783 0-76.094-61.686-137.783-137.783-137.783h-275.565c-76.097.001-137.783 61.689-137.783 137.783 0 76.096 61.686 137.783 137.783 137.783zm0-241.12h275.565c57.072 0 103.337 46.265 103.337 103.337s-46.265 103.337-103.337 103.337h-275.565c-57.072 0-103.337-46.265-103.337-103.337s46.265-103.337 103.337-103.337z" data-original="#000000" class="active-path" data-old_color="#000000" fill="#FFFFFF"/><path d="m413.348 344.456c38.047 0 68.891-30.842 68.891-68.891 0-38.047-30.844-68.891-68.891-68.891s-68.891 30.844-68.891 68.891c-.001 38.049 30.844 68.891 68.891 68.891zm0-103.337c19.025 0 34.446 15.423 34.446 34.446 0 19.025-15.421 34.446-34.446 34.446s-34.446-15.421-34.446-34.446c0-19.022 15.421-34.446 34.446-34.446z" data-original="#000000" class="active-path" data-old_color="#000000" fill="#FFFFFF"/></g> </svg>
