<?xml version="1.0"?>
<svg xmlns="http://www.w3.org/2000/svg" height="512px" viewBox="-7 0 512 512" width="512px" class=""><g><path d="m498.339844 307.019531c0-5.519531-4.480469-10-10-10h-59.046875v-54.773437c0-5.519532-4.476563-10-10-10h-33.457031v-21.460938h2.886718c5.519532 0 10-4.480468 10-10 0-5.523437-4.480468-10-10-10h-24.640625c-4.800781-55.636718-49.25-100.121094-104.914062-105.050781v-22.722656h54.433593c5.523438 0 10-4.480469 10-10v-43.011719c0-5.523438-4.476562-10-10-10h-64.433593c-5.519531 0-10 4.476562-10 10v75.683594c-55.871094 4.667968-100.5625 49.269531-105.371094 105.101562h-25.0625c-5.523437 0-10 4.476563-10 10 0 5.519532 4.476563 10 10 10h3.769531v21.460938h-33.460937c-5.519531 0-10 4.480468-10 10v54.773437h-59.042969c-5.523438 0-10 4.480469-10 10 0 5.417969 4.3125 9.820313 9.6875 9.984375v184.996094c0 5.523438 4.476562 10 10 10h458.960938c5.523437 0 10-4.476562 10-10v-184.996094c5.378906-.164062 9.691406-4.566406 9.691406-9.984375zm-194.738282-264.007812h-44.433593v-23.011719h44.433593zm-171.097656 167.769531h71.097656c5.523438 0 10-4.476562 10-10 0-5.519531-4.476562-10-10-10h-49.726562c5.015625-47.984375 45.703125-85.511719 94.992188-85.511719 49.363281 0 90.109374 37.527344 95.128906 85.511719h-50.667969c-5.519531 0-10 4.480469-10 10 0 5.523438 4.480469 10 10 10h72.507813v21.464844h-233.332032zm-102.816406 106.238281h39.355469v28.8125h-7.777344c-5.519531 0-10 4.480469-10 10 0 5.523438 4.480469 10 10 10h7.777344v28.78125h-7.777344c-5.519531 0-10 4.476563-10 10 0 5.523438 4.480469 10 10 10h7.777344v28.78125h-7.777344c-5.519531 0-10 4.476563-10 10 0 5.519531 4.480469 10 10 10h7.777344v28.605469h-39.355469zm59.355469-64.773437h320.25v239.753906h-31.886719v-119.875c0-5.523438-4.476562-10-10-10h-41.882812c-5.523438 0-10 4.476562-10 10v119.875h-35.644532v-33.875c0-17.0625-13.878906-30.941406-30.941406-30.941406-17.058594 0-30.941406 13.878906-30.941406 30.941406v33.875h-34.597656v-119.875c0-5.523438-4.476563-10-10-10h-41.882813c-5.523437 0-10 4.476562-10 10v119.875h-32.472656zm52.472656 239.753906v-109.875h21.882813v109.875zm96.480469 0v-33.875c0-6.035156 4.910156-10.941406 10.941406-10.941406 6.035156 0 10.941406 4.90625 10.941406 10.941406v33.875zm97.527344 0v-109.875h21.882812v109.875zm133.125 0h-39.355469v-28.605469h7.777343c5.523438 0 10-4.480469 10-10 0-5.523437-4.476562-10-10-10h-7.777343v-28.78125h7.777343c5.523438 0 10-4.476562 10-10 0-5.523437-4.476562-10-10-10h-7.777343v-28.78125h7.777343c5.523438 0 10-4.476562 10-10 0-5.519531-4.476562-10-10-10h-7.777343v-28.8125h39.355469zm0 0" data-original="#000000" class="active-path" data-old_color="#000000" fill="#FFFFFF"/><path d="m131.515625 342.363281h41.882813c5.523437 0 10-4.480469 10-10v-41.097656c0-5.523437-4.476563-10-10-10h-41.882813c-5.519531 0-10 4.476563-10 10v41.097656c0 5.523438 4.476563 10 10 10zm10-41.097656h21.882813v21.097656h-21.882813zm0 0" data-original="#000000" class="active-path" data-old_color="#000000" fill="#FFFFFF"/><path d="m227.996094 407.300781h41.882812c5.523438 0 10-4.476562 10-10v-85.09375c0-17.0625-13.878906-30.941406-30.941406-30.941406-17.058594 0-30.941406 13.878906-30.941406 30.941406v85.09375c0 5.523438 4.480468 10 10 10zm10-20v-44.9375h21.882812v44.9375zm10.941406-86.035156c6.035156 0 10.941406 4.910156 10.941406 10.941406v10.15625h-21.882812v-10.15625c0-6.03125 4.910156-10.941406 10.941406-10.941406zm0 0" data-original="#000000" class="active-path" data-old_color="#000000" fill="#FFFFFF"/><path d="m325.523438 342.363281h41.882812c5.523438 0 10-4.480469 10-10v-41.097656c0-5.523437-4.476562-10-10-10h-41.882812c-5.523438 0-10 4.476563-10 10v41.097656c0 5.523438 4.476562 10 10 10zm10-41.097656h21.882812v21.097656h-21.882812zm0 0" data-original="#000000" class="active-path" data-old_color="#000000" fill="#FFFFFF"/><path d="m246.988281 191.058594c-4.070312.828125-7.261719 4.136718-7.925781 8.242187-.6875 4.28125 1.578125 8.609375 5.453125 10.53125 3.679687 1.824219 8.269531 1.136719 11.265625-1.671875 3.125-2.929687 4.015625-7.683594 2.199219-11.550781-1.921875-4.09375-6.550781-6.4375-10.992188-5.550781zm0 0" data-original="#000000" class="active-path" data-old_color="#000000" fill="#FFFFFF"/></g> </svg>
